<?xml version="1.0" encoding="UTF-8"?>
<svg width="1440px" height="139px" viewBox="0 0 1440 139" version="1.1" xmlns="http://www.w3.org/2000/svg" xmlns:xlink="http://www.w3.org/1999/xlink">
    <!-- Generator: Sketch 43.2 (39069) - http://www.bohemiancoding.com/sketch -->
    <title>Path 4</title>
    <desc>Created with Sketch.</desc>
    <defs>
        <path d="M-35.1510739,1334.62768 C-35.1510739,1334.62768 -356.051616,1022.83989 -105.583723,1044.36758 C26.6222505,1055.73067 61.7888252,951.937478 149.460396,937.932372 C197.464668,930.263924 314.493623,998.813494 407.215204,1000.25206 C499.936785,1001.69062 572.806524,959.478615 619.54601,959.478615 C666.285495,959.478615 730.592038,1005.40554 791.309642,985.557923 C828.3705,973.443316 860.390688,917.851563 890.4375,917.851562 C920.484312,917.851562 962.303018,962.615235 990.123359,985.557923 C1061.52728,1044.44282 1089.59953,1012.86298 1122.32933,985.557923 C1147.7269,964.369836 1199.53086,904 1251.19677,904 C1354.02364,904 1385.90519,980.579012 1437,1054 C1522.20093,1176.42997 1312.0229,1139.52735 1312.0229,1139.52735 L541.945973,1157.33006 L-35.1510739,1334.62768 Z" id="path-1"></path>
        <filter x="-4.7%" y="-12.5%" width="109.4%" height="136.2%" filterUnits="objectBoundingBox" id="filter-2">
            <feOffset dx="0" dy="24" in="SourceAlpha" result="shadowOffsetOuter1"></feOffset>
            <feGaussianBlur stdDeviation="22" in="shadowOffsetOuter1" result="shadowBlurOuter1"></feGaussianBlur>
            <feColorMatrix values="0 0 0 0 0.243137255   0 0 0 0 0.250980392   0 0 0 0 0.325490196  0 0 0 0.116762908 0" type="matrix" in="shadowBlurOuter1"></feColorMatrix>
        </filter>
    </defs>
    <g id="Abmin-all" stroke="none" stroke-width="1" fill="none" fill-rule="evenodd" opacity="0.541213768">
        <g id="Dashboard_Admin" transform="translate(0.000000, -885.000000)">
            <g id="Path-4" style="mix-blend-mode: multiply;">
                <use fill="black" fill-opacity="1" filter="url(#filter-2)" xlink:href="#path-1"></use>
                <use fill="#FF540B" fill-rule="evenodd" xlink:href="#path-1"></use>
            </g>
        </g>
    </g>
</svg>