<?xml version="1.0" encoding="UTF-8"?>
<svg width="122px" height="717px" viewBox="0 0 122 717" version="1.1" xmlns="http://www.w3.org/2000/svg" xmlns:xlink="http://www.w3.org/1999/xlink">
    <!-- Generator: Sketch 43.2 (39069) - http://www.bohemiancoding.com/sketch -->
    <title>Path 5 Copy 2@2x</title>
    <desc>Created with Sketch.</desc>
    <defs></defs>
    <g id="Abmin-all" stroke="none" stroke-width="1" fill="none" fill-rule="evenodd">
        <g id="Dashboard_Admin" transform="translate(0.000000, -307.000000)" stroke="#E2E9EE" stroke-width="5">
            <path d="M449.600689,717.133365 L429.652842,767.213025 C429.529504,767.211976 429.398964,767.210868 429.253755,767.209639 C427.547044,767.195186 425.592133,767.179082 423.420043,767.161739 C417.2142,767.11219 410.511933,767.062642 403.561393,767.016396 C394.624759,766.956935 385.936245,766.907384 377.743927,766.871046 C362.659514,766.804136 350.088348,766.785548 340.865304,766.826459 C335.616463,766.849741 331.52,766.89214 328.675086,766.955236 C327.155976,766.988927 325.991465,767.028529 325.183659,767.07511 C324.734122,767.101032 324.383446,767.12955 324.112076,767.164458 C323.907091,767.190826 323.731216,767.221771 323.54821,767.271288 C322.289671,767.611821 321.623463,767.981209 321.623463,769.727714 C321.623463,767.317482 317.464433,768.066607 323.084593,767.379096 C322.631784,767.434488 321.936232,767.506175 321.010494,767.592671 C319.175583,767.764115 316.457715,767.991879 312.891749,768.273542 C306.110233,768.809192 296.297414,769.537016 283.698888,770.441122 C261.414862,772.040286 230.906381,774.156198 194.121473,776.663123 C192.292856,776.787745 190.451018,776.913176 188.596302,777.039395 C158.987949,779.05432 127.264482,781.190891 95.5409829,783.312603 C84.4377328,784.055204 74.1275795,784.742904 64.874898,785.35864 C61.6364787,785.574146 58.761566,785.765263 56.2832065,785.929858 C54.9118641,786.020918 54.9118641,786.020918 54.0196889,786.080123 C53.4886283,786.115354 53.395271,786.121548 53.3048881,786.12754 L-364.266504,793.135856 C-364.709054,773.574786 -363.552251,749.846333 -359.458629,727.126552 C-353.756242,695.478057 -343.366582,673.188592 -327.6079,664.370586 C-317.212181,658.553506 -309.187378,661.873451 -297.508526,674.372261 C-296.263352,675.704857 -294.968557,677.141004 -293.335065,678.990826 C-292.649913,679.766716 -289.798109,683.017798 -289.055686,683.858379 C-282.171041,691.65326 -277.556673,696.236254 -272.213909,700.082689 C-265.235724,705.106519 -258.102564,707.758509 -250.298412,707.758509 C-236.868968,707.758509 -227.814213,705.567206 -214.274385,700.264303 C-213.595166,699.998285 -211.217136,699.060907 -211.285364,699.087748 C-210.106159,698.623853 -209.219542,698.278756 -208.355571,697.948997 C-199.497843,694.568193 -193.323714,693.114433 -185.614818,693.114433 C-176.286808,693.114433 -167.807442,694.626888 -156.235716,697.916625 C-154.77261,698.332573 -153.245779,698.779188 -151.390318,699.331561 C-150.332728,699.646407 -146.679045,700.741992 -146.479636,700.801618 C-127.52918,706.468042 -116.367689,708.698373 -101.103099,708.698373 C-85.4305273,708.698373 -73.6354165,704.238772 -57.7201676,694.448023 C-56.6732657,693.803989 -50.4453331,689.902741 -48.709335,688.85015 C-45.4316473,686.862781 -42.813091,685.414829 -40.3161391,684.250235 C-35.5732057,682.038101 -31.3918719,680.938993 -27.2241932,680.938993 C-21.8605744,680.938993 -16.6729629,682.724476 -10.3167584,686.438441 C-8.53424546,687.479973 -6.67130463,688.660318 -4.34517101,690.204288 C-3.18017667,690.977553 1.04903176,693.831213 1.89878326,694.398228 C16.8197062,704.354536 27.1740182,708.698373 41.2679943,708.698373 C51.4404125,708.698373 62.9816805,704.786535 77.4644015,697.263504 C82.1701789,694.819094 86.9525425,692.1315 93.3220797,688.406211 C93.8838532,688.077652 103.188643,682.598756 105.802484,681.086776 C110.376476,678.440944 114.001069,676.439924 117.310585,674.762337 C125.16755,670.779655 130.994451,668.798026 135.299244,668.798026 C144.60616,668.798026 158.254351,673.99716 192.801606,689.371952 C192.842195,689.390015 192.842195,689.390015 192.882785,689.408079 C219.449764,701.231332 230.5359,705.774979 241.302069,708.615646 C249.977003,710.904539 258.875412,707.783106 268.972431,699.981097 C276.122739,694.456025 279.206097,691.357694 295.892301,673.727548 C315.127524,653.404186 326.130445,644.331644 338.662065,640.859609 C349.244822,637.92753 365.221447,644.246829 384.896949,658.123766 C393.189495,663.972416 401.938707,671.020406 410.971928,679.009465 C420.684072,687.59897 430.207413,696.80828 439.138033,706.017957 C442.263737,709.241331 445.09139,712.233777 447.570842,714.918038 C448.330026,715.739933 449.008044,716.480538 449.600689,717.133365 Z" id="Path-5-Copy-2" transform="translate(42.830376, 716.668087) rotate(90.000000) translate(-42.830376, -716.668087) "></path>
        </g>
    </g>
</svg>